<?xml version="1.0" standalone="no"?>
<!DOCTYPE svg PUBLIC "-//W3C//DTD SVG 20010904//EN"
 "http://www.w3.org/TR/2001/REC-SVG-20010904/DTD/svg10.dtd">
<svg version="1.0" xmlns="http://www.w3.org/2000/svg"
 width="1482.000000pt" height="1440.000000pt" viewBox="0 0 1482.000000 1440.000000"
 preserveAspectRatio="xMidYMid meet">

<g transform="translate(0.000000,1440.000000) scale(0.100000,-0.100000)"
fill="#000000" stroke="none">
<path d="M5087 12372 l-2017 -2017 0 -1000 c0 -550 -3 -1187 -6 -1415 l-6
-415 826 825 826 825 0 245 0 245 380 380 380 380 0 -575 0 -575 -1201 -1201
-1201 -1201 -5 -1394 -5 -1394 826 -825 826 -825 1 2085 0 2085 379 385 380
385 0 -2845 0 -2845 820 -820 820 -820 0 7173 c0 3944 -1 7172 -3 7172 -1 0
-910 -908 -2020 -2018z"/>
<path d="M7732 10303 l3 -4088 1203 -3 1202 -2 0 -633 0 -632 -380 -380 -380
-380 0 703 0 702 -825 0 -825 0 0 -1906 c0 -1652 -3 -2013 -21 -2715 -11 -445
-19 -831 -17 -858 l3 -50 1223 1272 c672 700 1553 1605 1957 2012 l734 740 -2
1880 -2 1880 -1112 3 -1113 2 0 1278 1 1277 1114 -1120 1114 -1120 0 1170 0
1170 -1931 1940 c-1062 1067 -1935 1942 -1940 1943 -4 2 -7 -1836 -6 -4085z"/>
<path d="M10898 12153 c193 -197 581 -587 861 -868 l511 -510 0 868 0 867
-861 0 -861 0 350 -357z"/>
<path d="M2510 11583 l0 -878 875 875 c481 481 875 876 875 877 0 2 -394 3
-875 3 l-875 0 0 -877z"/>
<path d="M12270 8670 l0 -1165 100 -100 c55 -55 100 -104 100 -110 0 -6 -45
-55 -100 -110 l-100 -100 0 -1169 0 -1169 1263 1268 c694 697 1263 1271 1265
1275 1 4 -566 578 -1262 1276 l-1265 1269 -1 -1165z"/>
<path d="M1253 8478 c-829 -829 -1253 -1260 -1253 -1273 0 -13 425 -445 1255
-1275 l1255 -1255 0 1160 0 1160 -102 102 -103 103 103 103 102 102 -2 1163
-3 1162 -1252 -1252z"/>
<path d="M2510 2895 l0 -1005 1007 0 1008 0 -1005 1005 c-553 553 -1006 1005
-1007 1005 -2 0 -3 -452 -3 -1005z"/>
<path d="M11302 2874 l-962 -969 962 -3 c528 -1 963 -1 965 1 2 2 2 439 1 972
l-3 968 -963 -969z"/>
</g>
</svg>
